<svg viewBox="0 0 100 100" fill="none" xmlns="http://www.w3.org/2000/svg">
    <circle cx="50" cy="50" r="45" fill="url(#bg-grad)" fill-opacity="0.05"/>
    <path d="M50 20L85 40V80L50 100L15 80V40L50 20Z" fill="url(#main-grad)" fill-opacity="0.1"/>
    <path d="M50 20L15 40V80L50 60" stroke="#94A3B8" stroke-width="2.5" stroke-linecap="round" stroke-linejoin="round"
          stroke-dasharray="4 4"/>
    <path d="M50 20L85 40V80L50 100V60L85 40" fill="url(#main-grad)"/>
    <path d="M50 60L15 40" stroke="#94A3B8" stroke-width="2.5" stroke-linecap="round" stroke-linejoin="round"
          opacity="0.5"/>
    <path d="M50 15L52 22L59 24L52 26L50 33L48 26L41 24L48 22L50 15Z" fill="#F97316">
        <animate attributeName="opacity" values="1;0.5;1" dur="2s" repeatCount="indefinite"/>
    </path>
    <defs>
        <linearGradient id="main-grad" x1="50" y1="20" x2="50" y2="100" gradientUnits="userSpaceOnUse">
            <stop stop-color="#F97316" offset="0"/>
            <stop offset="1" stop-color="#EA580C"/>
        </linearGradient>
        <radialGradient id="bg-grad" cx="0" cy="0" r="1" gradientUnits="userSpaceOnUse"
                        gradientTransform="translate(50 50) rotate(90) scale(45)">
            <stop stop-color="#F97316" offset="0"/>
            <stop offset="1" stop-color="#F97316" stop-opacity="0"/>
        </radialGradient>
    </defs>
</svg>
